<?xml version="1.0" encoding="UTF-8"?><svg xmlns="http://www.w3.org/2000/svg" xmlns:xlink="http://www.w3.org/1999/xlink" fill-opacity="1" color-rendering="auto" color-interpolation="auto" text-rendering="auto" stroke="black" stroke-linecap="square" width="1476" stroke-miterlimit="10" shape-rendering="auto" stroke-opacity="1" fill="black" stroke-dasharray="none" font-weight="normal" stroke-width="1" height="860" font-family="'Dialog'" font-style="normal" stroke-linejoin="miter" font-size="12px" stroke-dashoffset="0" image-rendering="auto">
  <!--Generated by ySVG 2.5-->
  <defs id="genericDefs"/>
  <g>
    <defs id="defs1">
      <clipPath clipPathUnits="userSpaceOnUse" id="clipPath1">
        <path d="M0 0 L1476 0 L1476 860 L0 860 L0 0 Z"/>
      </clipPath>
      <clipPath clipPathUnits="userSpaceOnUse" id="clipPath2">
        <path d="M-386 -415 L1090 -415 L1090 445 L-386 445 L-386 -415 Z"/>
      </clipPath>
    </defs>
    <g fill="rgb(255,204,0)" text-rendering="geometricPrecision" shape-rendering="geometricPrecision" transform="matrix(1,0,0,1,386,415)" stroke="rgb(255,204,0)">
      <path d="M271.8015 -292.7798 L495.0001 -292.7798 L470.1986 -240.7801 L247.0002 -240.7801 Z" fill-rule="evenodd" clip-path="url(#clipPath2)" stroke="none"/>
    </g>
    <g text-rendering="geometricPrecision" stroke-miterlimit="1.45" shape-rendering="geometricPrecision" transform="matrix(1,0,0,1,386,415)" stroke-linecap="butt">
      <path fill="none" d="M271.8015 -292.7798 L495.0001 -292.7798 L470.1986 -240.7801 L247.0002 -240.7801 Z" fill-rule="evenodd" clip-path="url(#clipPath2)"/>
      <text x="282.9688" xml:space="preserve" y="-262.2447" clip-path="url(#clipPath2)" font-family="sans-serif" stroke="none">Ask player if they want to play</text>
    </g>
    <g fill="rgb(255,204,0)" text-rendering="geometricPrecision" shape-rendering="geometricPrecision" transform="matrix(1,0,0,1,386,415)" stroke="rgb(255,204,0)">
      <rect x="379" width="116" height="46" y="-37.5" clip-path="url(#clipPath2)" stroke="none"/>
    </g>
    <g text-rendering="geometricPrecision" stroke-miterlimit="1.45" shape-rendering="geometricPrecision" transform="matrix(1,0,0,1,386,415)" stroke-linecap="butt">
      <rect fill="none" x="379" width="116" height="46" y="-37.5" clip-path="url(#clipPath2)"/>
      <text x="402.0254" xml:space="preserve" y="-9.9648" clip-path="url(#clipPath2)" font-family="sans-serif" stroke="none">Start canvas</text>
    </g>
    <g fill="rgb(255,204,0)" text-rendering="geometricPrecision" shape-rendering="geometricPrecision" transform="matrix(1,0,0,1,386,415)" stroke="rgb(255,204,0)">
      <rect x="644.5529" width="163" height="46" y="-184.5451" clip-path="url(#clipPath2)" stroke="none"/>
    </g>
    <g text-rendering="geometricPrecision" stroke-miterlimit="1.45" shape-rendering="geometricPrecision" transform="matrix(1,0,0,1,386,415)" stroke-linecap="butt">
      <rect fill="none" x="644.5529" width="163" height="46" y="-184.5451" clip-path="url(#clipPath2)"/>
      <text x="665.3293" xml:space="preserve" y="-157.0099" clip-path="url(#clipPath2)" font-family="sans-serif" stroke="none">Start enemy spawner</text>
    </g>
    <g fill="rgb(255,204,0)" text-rendering="geometricPrecision" shape-rendering="geometricPrecision" transform="matrix(1,0,0,1,386,415)" stroke="rgb(255,204,0)">
      <rect x="82" width="248" height="46" y="-197.8159" clip-path="url(#clipPath2)" stroke="none"/>
    </g>
    <g text-rendering="geometricPrecision" stroke-miterlimit="1.45" shape-rendering="geometricPrecision" transform="matrix(1,0,0,1,386,415)" stroke-linecap="butt">
      <rect fill="none" x="82" width="248" height="46" y="-197.8159" clip-path="url(#clipPath2)"/>
      <text x="89.334" xml:space="preserve" y="-170.2807" clip-path="url(#clipPath2)" font-family="sans-serif" stroke="none">Start player manager and turretManager</text>
    </g>
    <g fill="rgb(255,204,0)" text-rendering="geometricPrecision" shape-rendering="geometricPrecision" transform="matrix(1,0,0,1,386,415)" stroke="rgb(255,204,0)">
      <rect x="-251.2443" width="256.1366" height="52" y="-124.8633" clip-path="url(#clipPath2)" stroke="none"/>
    </g>
    <g text-rendering="geometricPrecision" stroke-miterlimit="1.45" shape-rendering="geometricPrecision" transform="matrix(1,0,0,1,386,415)" stroke-linecap="butt">
      <rect fill="none" x="-251.2443" width="256.1366" height="52" y="-124.8633" clip-path="url(#clipPath2)"/>
      <text x="-239.8362" xml:space="preserve" y="-94.3281" clip-path="url(#clipPath2)" font-family="sans-serif" stroke="none">Player manager sets up money and lives</text>
    </g>
    <g fill="rgb(255,204,0)" text-rendering="geometricPrecision" shape-rendering="geometricPrecision" transform="matrix(1,0,0,1,386,415)" stroke="rgb(255,204,0)">
      <rect x="-114.4815" width="282.9903" height="46" y="28.7129" clip-path="url(#clipPath2)" stroke="none"/>
    </g>
    <g text-rendering="geometricPrecision" stroke-miterlimit="1.45" shape-rendering="geometricPrecision" transform="matrix(1,0,0,1,386,415)" stroke-linecap="butt">
      <rect fill="none" x="-114.4815" width="282.9903" height="46" y="28.7129" clip-path="url(#clipPath2)"/>
      <text x="-101.3916" xml:space="preserve" y="56.2481" clip-path="url(#clipPath2)" font-family="sans-serif" stroke="none">turret manager starts itself with the squares</text>
    </g>
    <g fill="rgb(255,204,0)" text-rendering="geometricPrecision" shape-rendering="geometricPrecision" transform="matrix(1,0,0,1,386,415)" stroke="rgb(255,204,0)">
      <path d="M326.5924 227.9928 L599.1118 227.9928 L568.8321 305.6433 L296.3124 305.6433 Z" fill-rule="evenodd" clip-path="url(#clipPath2)" stroke="none"/>
    </g>
    <g text-rendering="geometricPrecision" stroke-miterlimit="1.45" shape-rendering="geometricPrecision" transform="matrix(1,0,0,1,386,415)" stroke-linecap="butt">
      <path fill="none" d="M326.5924 227.9928 L599.1118 227.9928 L568.8321 305.6433 L296.3124 305.6433 Z" fill-rule="evenodd" clip-path="url(#clipPath2)"/>
      <text x="391.3771" xml:space="preserve" y="271.3529" clip-path="url(#clipPath2)" font-family="sans-serif" stroke="none">main game window</text>
    </g>
    <g fill="rgb(255,204,0)" text-rendering="geometricPrecision" shape-rendering="geometricPrecision" transform="matrix(1,0,0,1,386,415)" stroke="rgb(255,204,0)">
      <rect x="893.1215" width="116" height="34.3005" y="-56.0813" clip-path="url(#clipPath2)" stroke="none"/>
    </g>
    <g text-rendering="geometricPrecision" stroke-miterlimit="1.45" shape-rendering="geometricPrecision" transform="matrix(1,0,0,1,386,415)" stroke-linecap="butt">
      <rect fill="none" x="893.1215" width="116" height="34.3005" y="-56.0813" clip-path="url(#clipPath2)"/>
      <text x="900.5082" xml:space="preserve" y="-34.3959" clip-path="url(#clipPath2)" font-family="sans-serif" stroke="none">Wait for start gap</text>
    </g>
    <g fill="rgb(255,204,0)" text-rendering="geometricPrecision" shape-rendering="geometricPrecision" transform="matrix(1,0,0,1,386,415)" stroke="rgb(255,204,0)">
      <rect x="835.1283" width="116" height="70.1379" y="190.9041" clip-path="url(#clipPath2)" stroke="none"/>
    </g>
    <g text-rendering="geometricPrecision" stroke-miterlimit="1.45" shape-rendering="geometricPrecision" transform="matrix(1,0,0,1,386,415)" stroke-linecap="butt">
      <rect fill="none" x="835.1283" width="116" height="70.1379" y="190.9041" clip-path="url(#clipPath2)"/>
      <text x="841.9555" xml:space="preserve" y="230.5082" clip-path="url(#clipPath2)" font-family="sans-serif" stroke="none">wait for wave gap</text>
    </g>
    <g fill="rgb(255,204,0)" text-rendering="geometricPrecision" shape-rendering="geometricPrecision" transform="matrix(1,0,0,1,386,415)" stroke="rgb(255,204,0)">
      <rect x="925.7092" width="148.7606" height="22.8024" y="308.9715" clip-path="url(#clipPath2)" stroke="none"/>
    </g>
    <g text-rendering="geometricPrecision" stroke-miterlimit="1.45" shape-rendering="geometricPrecision" transform="matrix(1,0,0,1,386,415)" stroke-linecap="butt">
      <rect fill="none" x="925.7092" width="148.7606" height="22.8024" y="308.9715" clip-path="url(#clipPath2)"/>
      <text x="944.1559" xml:space="preserve" y="324.9078" clip-path="url(#clipPath2)" font-family="sans-serif" stroke="none">wait for enemy gap</text>
    </g>
    <g fill="rgb(255,204,0)" text-rendering="geometricPrecision" shape-rendering="geometricPrecision" transform="matrix(1,0,0,1,386,415)" stroke="rgb(255,204,0)">
      <rect x="730.5246" width="104.6038" height="46" y="297.3727" clip-path="url(#clipPath2)" stroke="none"/>
    </g>
    <g text-rendering="geometricPrecision" stroke-miterlimit="1.45" shape-rendering="geometricPrecision" transform="matrix(1,0,0,1,386,415)" stroke-linecap="butt">
      <rect fill="none" x="730.5246" width="104.6038" height="46" y="297.3727" clip-path="url(#clipPath2)"/>
      <text x="743.2874" xml:space="preserve" y="324.9078" clip-path="url(#clipPath2)" font-family="sans-serif" stroke="none">spawn enemy</text>
    </g>
    <g fill="rgb(255,204,0)" text-rendering="geometricPrecision" shape-rendering="geometricPrecision" transform="matrix(1,0,0,1,386,415)" stroke="rgb(255,204,0)">
      <rect x="743.4991" width="156.502" height="41.5343" y="387.5549" clip-path="url(#clipPath2)" stroke="none"/>
    </g>
    <g text-rendering="geometricPrecision" stroke-miterlimit="1.45" shape-rendering="geometricPrecision" transform="matrix(1,0,0,1,386,415)" stroke-linecap="butt">
      <rect fill="none" x="743.4991" width="156.502" height="41.5343" y="387.5549" clip-path="url(#clipPath2)"/>
      <text x="754.4494" xml:space="preserve" y="412.8572" clip-path="url(#clipPath2)" font-family="sans-serif" stroke="none">more enemies in wave?</text>
    </g>
    <g fill="rgb(255,204,0)" text-rendering="geometricPrecision" shape-rendering="geometricPrecision" transform="matrix(1,0,0,1,386,415)" stroke="rgb(255,204,0)">
      <rect x="629.1122" width="104.6038" height="22.8024" y="185.4634" clip-path="url(#clipPath2)" stroke="none"/>
    </g>
    <g text-rendering="geometricPrecision" stroke-miterlimit="1.45" shape-rendering="geometricPrecision" transform="matrix(1,0,0,1,386,415)" stroke-linecap="butt">
      <rect fill="none" x="629.1122" width="104.6038" height="22.8024" y="185.4634" clip-path="url(#clipPath2)"/>
      <text x="644.4561" xml:space="preserve" y="201.3997" clip-path="url(#clipPath2)" font-family="sans-serif" stroke="none">more waves?</text>
    </g>
    <g fill="rgb(255,204,0)" text-rendering="geometricPrecision" shape-rendering="geometricPrecision" transform="matrix(1,0,0,1,386,415)" stroke="rgb(255,204,0)">
      <rect x="525" width="320.6354" height="52" y="-73.7808" clip-path="url(#clipPath2)" stroke="none"/>
    </g>
    <g text-rendering="geometricPrecision" stroke-miterlimit="1.45" shape-rendering="geometricPrecision" transform="matrix(1,0,0,1,386,415)" stroke-linecap="butt">
      <rect fill="none" x="525" width="320.6354" height="52" y="-73.7808" clip-path="url(#clipPath2)"/>
      <text x="530.9495" xml:space="preserve" y="-43.2456" clip-path="url(#clipPath2)" font-family="sans-serif" stroke="none">get enemies and check for player is dead - then stop</text>
    </g>
    <g fill="rgb(255,204,0)" text-rendering="geometricPrecision" shape-rendering="geometricPrecision" transform="matrix(1,0,0,1,386,415)" stroke="rgb(255,204,0)">
      <rect x="198.3764" width="116" height="46" y="-37.5" clip-path="url(#clipPath2)" stroke="none"/>
    </g>
    <g text-rendering="geometricPrecision" stroke-miterlimit="1.45" shape-rendering="geometricPrecision" transform="matrix(1,0,0,1,386,415)" stroke-linecap="butt">
      <rect fill="none" x="198.3764" width="116" height="46" y="-37.5" clip-path="url(#clipPath2)"/>
      <text x="222.4213" xml:space="preserve" y="-9.9648" clip-path="url(#clipPath2)" font-family="sans-serif" stroke="none">get squares</text>
    </g>
    <g fill="rgb(255,204,0)" text-rendering="geometricPrecision" shape-rendering="geometricPrecision" transform="matrix(1,0,0,1,386,415)" stroke="rgb(255,204,0)">
      <rect x="292.2504" width="306.8618" height="46" y="81.2867" clip-path="url(#clipPath2)" stroke="none"/>
    </g>
    <g text-rendering="geometricPrecision" stroke-miterlimit="1.45" shape-rendering="geometricPrecision" transform="matrix(1,0,0,1,386,415)" stroke-linecap="butt">
      <rect fill="none" x="292.2504" width="306.8618" height="46" y="81.2867" clip-path="url(#clipPath2)"/>
      <text x="292.4528" xml:space="preserve" y="108.8219" clip-path="url(#clipPath2)" font-family="sans-serif" stroke="none">canvas renders - check if player is dead - if yes stop</text>
    </g>
    <g fill="rgb(255,204,0)" text-rendering="geometricPrecision" shape-rendering="geometricPrecision" transform="matrix(1,0,0,1,386,415)" stroke="rgb(255,204,0)">
      <rect x="23.7297" width="202.8107" height="60.2663" y="158.1103" clip-path="url(#clipPath2)" stroke="none"/>
    </g>
    <g text-rendering="geometricPrecision" stroke-miterlimit="1.45" shape-rendering="geometricPrecision" transform="matrix(1,0,0,1,386,415)" stroke-linecap="butt">
      <rect fill="none" x="23.7297" width="202.8107" height="60.2663" y="158.1103" clip-path="url(#clipPath2)"/>
      <text x="71.0705" xml:space="preserve" y="192.7785" clip-path="url(#clipPath2)" font-family="sans-serif" stroke="none">create turretFrame</text>
    </g>
    <g fill="rgb(255,204,0)" text-rendering="geometricPrecision" shape-rendering="geometricPrecision" transform="matrix(1,0,0,1,386,415)" stroke="rgb(255,204,0)">
      <rect x="-90.2705" width="171.5966" height="30" y="301.7739" clip-path="url(#clipPath2)" stroke="none"/>
    </g>
    <g text-rendering="geometricPrecision" stroke-miterlimit="1.45" shape-rendering="geometricPrecision" transform="matrix(1,0,0,1,386,415)" stroke-linecap="butt">
      <rect fill="none" x="-90.2705" width="171.5966" height="30" y="301.7739" clip-path="url(#clipPath2)"/>
      <text x="-69.8335" xml:space="preserve" y="321.309" clip-path="url(#clipPath2)" font-family="sans-serif" stroke="none">check for button input</text>
    </g>
    <g fill="rgb(255,204,0)" text-rendering="geometricPrecision" shape-rendering="geometricPrecision" transform="matrix(1,0,0,1,386,415)" stroke="rgb(255,204,0)">
      <rect x="-214.7805" width="94.1304" height="30" y="203.9522" clip-path="url(#clipPath2)" stroke="none"/>
    </g>
    <g text-rendering="geometricPrecision" stroke-miterlimit="1.45" shape-rendering="geometricPrecision" transform="matrix(1,0,0,1,386,415)" stroke-linecap="butt">
      <rect fill="none" x="-214.7805" width="94.1304" height="30" y="203.9522" clip-path="url(#clipPath2)"/>
      <text x="-196.7133" xml:space="preserve" y="223.4873" clip-path="url(#clipPath2)" font-family="sans-serif" stroke="none">buy turret</text>
    </g>
    <g fill="rgb(255,204,0)" text-rendering="geometricPrecision" shape-rendering="geometricPrecision" transform="matrix(1,0,0,1,386,415)" stroke="rgb(255,204,0)">
      <rect x="-90.65" width="70.6167" height="30" y="203.9522" clip-path="url(#clipPath2)" stroke="none"/>
    </g>
    <g text-rendering="geometricPrecision" stroke-miterlimit="1.45" shape-rendering="geometricPrecision" transform="matrix(1,0,0,1,386,415)" stroke-linecap="butt">
      <rect fill="none" x="-90.65" width="70.6167" height="30" y="203.9522" clip-path="url(#clipPath2)"/>
      <text x="-84.4657" xml:space="preserve" y="223.4873" clip-path="url(#clipPath2)" font-family="sans-serif" stroke="none">sell turrey</text>
    </g>
    <g fill="rgb(255,204,0)" text-rendering="geometricPrecision" shape-rendering="geometricPrecision" transform="matrix(1,0,0,1,386,415)" stroke="rgb(255,204,0)">
      <rect x="216.3086" width="80.1355" height="30" y="101.4116" clip-path="url(#clipPath2)" stroke="none"/>
    </g>
    <g text-rendering="geometricPrecision" stroke-miterlimit="1.45" shape-rendering="geometricPrecision" transform="matrix(1,0,0,1,386,415)" stroke-linecap="butt">
      <rect fill="none" x="216.3086" width="80.1355" height="30" y="101.4116" clip-path="url(#clipPath2)"/>
      <text x="225.6264" xml:space="preserve" y="120.9467" clip-path="url(#clipPath2)" font-family="sans-serif" stroke="none">get turrets</text>
      <path fill="none" d="M377.8079 -240.7574 L428.9581 -45.2395" clip-path="url(#clipPath2)"/>
      <path d="M430.9829 -37.5 L432.7829 -50.3748 L428.705 -46.207 L423.1085 -47.8438 Z" clip-path="url(#clipPath2)" stroke="none"/>
      <path fill="none" d="M458.6797 -240.7923 L640.7827 -186.8185" clip-path="url(#clipPath2)"/>
      <path d="M648.4529 -184.5451 L638.3685 -192.749 L639.8239 -187.1027 L635.5267 -183.1613 Z" clip-path="url(#clipPath2)" stroke="none"/>
      <path fill="none" d="M324.3118 -240.7578 L254.2541 -201.7107" clip-path="url(#clipPath2)"/>
      <path d="M247.2662 -197.8159 L260.1823 -199.2906 L255.1275 -202.1975 L255.3138 -208.0255 Z" clip-path="url(#clipPath2)" stroke="none"/>
      <path fill="none" d="M106.3188 -151.8159 L-2.6977 -126.6619" clip-path="url(#clipPath2)"/>
      <path d="M-10.4929 -124.8633 L2.324 -122.6892 L-1.7233 -126.8867 L0.0757 -132.4332 Z" clip-path="url(#clipPath2)" stroke="none"/>
      <path fill="none" d="M696.3253 -184.5451 L419.0826 -399.045 L419.0826 -399.045 L-69.2096 -128.7378" clip-path="url(#clipPath2)"/>
      <path d="M-76.2087 -124.8633 L-63.2884 -126.3007 L-68.3347 -129.2222 L-68.1316 -135.0496 Z" clip-path="url(#clipPath2)" stroke="none"/>
      <text x="416.3322" xml:space="preserve" y="-310.9874" clip-path="url(#clipPath2)" font-family="sans-serif" stroke="none">check if enemy reaches end - remove lives from player</text>
      <path fill="none" d="M187.8271 -151.8159 L50.1462 22.4358" clip-path="url(#clipPath2)"/>
      <path d="M45.1866 28.7129 L56.5493 22.3971 L50.7662 21.6512 L48.7029 16.1975 Z" clip-path="url(#clipPath2)" stroke="none"/>
      <path fill="none" d="M768.2714 -138.5451 L912.6156 -59.9085" clip-path="url(#clipPath2)"/>
      <path d="M919.6407 -56.0813 L911.4951 -66.2128 L911.7375 -60.3869 L906.7111 -57.4314 Z" clip-path="url(#clipPath2)" stroke="none"/>
      <path fill="none" d="M947.3669 -21.7808 L902.5165 183.0891" clip-path="url(#clipPath2)"/>
      <path d="M900.8057 190.9041 L908.2563 180.251 L902.7304 182.1123 L898.4877 178.1124 Z" clip-path="url(#clipPath2)" stroke="none"/>
      <path fill="none" d="M932.8638 261.042 L981.1732 303.6778" clip-path="url(#clipPath2)"/>
      <path d="M987.1712 308.9715 L981.4827 297.2822 L980.4234 303.0161 L974.8655 304.7798 Z" clip-path="url(#clipPath2)" stroke="none"/>
      <path fill="none" d="M925.7092 320.3727 L843.1284 320.3727" clip-path="url(#clipPath2)"/>
      <path d="M835.1284 320.3727 L847.1284 325.3727 L844.1284 320.3727 L847.1284 315.3727 Z" clip-path="url(#clipPath2)" stroke="none"/>
      <path fill="none" d="M793.0056 343.3727 L809.3216 380.2394" clip-path="url(#clipPath2)"/>
      <path d="M812.5593 387.555 L812.275 374.5581 L808.9169 379.325 L803.1306 378.6052 Z" clip-path="url(#clipPath2)" stroke="none"/>
      <path fill="none" d="M863.8607 387.555 L969.7958 335.3123" clip-path="url(#clipPath2)"/>
      <path d="M976.9708 331.7739 L963.9969 332.5971 L968.899 335.7545 L968.4199 341.5658 Z" clip-path="url(#clipPath2)" stroke="none"/>
      <text x="943.8524" xml:space="preserve" y="381.3885" clip-path="url(#clipPath2)" font-family="sans-serif" stroke="none">yes</text>
      <path fill="none" d="M784.5101 387.555 L637.8176 305.7509 L673.8756 215.6926" clip-path="url(#clipPath2)"/>
      <path d="M676.8492 208.2658 L667.7471 217.5475 L673.5039 216.621 L677.0306 221.2645 Z" clip-path="url(#clipPath2)" stroke="none"/>
      <text x="646.9954" xml:space="preserve" y="338.7144" clip-path="url(#clipPath2)" font-family="sans-serif" stroke="none">No</text>
      <path fill="none" d="M733.7159 204.0555 L827.2029 216.909" clip-path="url(#clipPath2)"/>
      <path d="M835.1283 217.9987 L823.9211 211.4108 L826.2122 216.7728 L822.5591 221.3176 Z" clip-path="url(#clipPath2)" stroke="none"/>
      <text x="763.6696" xml:space="preserve" y="244.3853" clip-path="url(#clipPath2)" font-family="sans-serif" stroke="none">Yes</text>
      <path fill="none" d="M717.8174 -138.5451 L697.3243 -81.3125" clip-path="url(#clipPath2)"/>
      <path d="M694.6274 -73.7808 L703.3801 -83.3929 L697.6614 -82.254 L693.9654 -86.7639 Z" clip-path="url(#clipPath2)" stroke="none"/>
      <path fill="none" d="M664.5679 -21.7716 L663.6068 -19.5351 L661.8215 -13.9559 L660.579 -8.2416 L659.8867 -2.435 L659.7516 3.4214 L660.1808 9.2846 L661.1817 15.1121 L662.7614 20.861 L664.9269 26.4888 L667.6857 31.9525 L671.0446 37.2096 L674.9161 42.1017 L679.179 46.4938 L683.7905 50.379 L688.7081 53.7499 L693.889 56.5995 L699.2903 58.9205 L704.8695 60.7058 L710.5838 61.9483 L716.3904 62.6406 L722.2468 62.7758 L728.11 62.3465 L733.9375 61.3456 L739.6865 59.766 L745.3141 57.6004 L750.778 54.8417 L756.035 51.4827 L760.9271 47.6113 L765.3192 43.3484 L769.2043 38.7368 L772.5753 33.8192 L775.4249 28.6384 L777.7459 23.237 L779.5312 17.6578 L780.7737 11.9435 L781.4661 6.1369 L781.6012 0.2806 L781.1719 -5.5827 L780.171 -11.4101 L779.4028 -14.2058 L779.3669 -14.2991" clip-path="url(#clipPath2)"/>
      <path d="M776.7826 -21.8702 L775.9272 -8.8983 L779.69 -13.3527 L785.3911 -12.1288 Z" clip-path="url(#clipPath2)" stroke="none"/>
      <path fill="none" d="M359.1766 -240.7574 L270.1357 -44.7835" clip-path="url(#clipPath2)"/>
      <path d="M266.8264 -37.5 L276.3425 -46.3569 L270.5493 -45.6939 L267.2382 -50.4935 Z" clip-path="url(#clipPath2)" stroke="none"/>
      <path fill="none" d="M293.0304 8.5 L402.2508 77.0346" clip-path="url(#clipPath2)"/>
      <path d="M409.0272 81.2867 L401.5202 70.6733 L401.4038 76.5031 L396.205 79.1438 Z" clip-path="url(#clipPath2)" stroke="none"/>
      <path fill="none" d="M438.6809 8.5 L443.4173 73.308" clip-path="url(#clipPath2)"/>
      <path d="M444.0004 81.2867 L448.1124 68.9542 L443.3444 72.3107 L438.139 69.6831 Z" clip-path="url(#clipPath2)" stroke="none"/>
      <path fill="none" d="M644.3455 -21.7808 L488.6807 77.0003" clip-path="url(#clipPath2)"/>
      <path d="M481.9259 81.2867 L494.7371 79.0788 L489.525 76.4645 L489.3791 70.6354 Z" clip-path="url(#clipPath2)" stroke="none"/>
      <path fill="none" d="M445.9687 127.2867 L447.1273 220.0181" clip-path="url(#clipPath2)"/>
      <path d="M447.2273 228.0175 L452.077 215.956 L447.1149 219.0182 L442.0778 216.0809 Z" clip-path="url(#clipPath2)" stroke="none"/>
      <path fill="none" d="M43.5432 74.7129 L98.8102 151.6139" clip-path="url(#clipPath2)"/>
      <path d="M103.479 158.1103 L100.5361 145.4478 L98.2266 150.8019 L92.4156 151.2837 Z" clip-path="url(#clipPath2)" stroke="none"/>
      <path fill="none" d="M226.5403 212.944 L315.5032 234.6139" clip-path="url(#clipPath2)"/>
      <path d="M323.276 236.5072 L312.8002 228.8093 L314.5316 234.3772 L310.4336 238.5252 Z" clip-path="url(#clipPath2)" stroke="none"/>
      <path fill="none" d="M94.7494 218.3765 L16.3339 296.1407" clip-path="url(#clipPath2)"/>
      <path d="M10.6535 301.7739 L22.6948 296.8743 L17.0439 295.4365 L15.6533 289.7738 Z" clip-path="url(#clipPath2)" stroke="none"/>
      <path fill="none" d="M-29.5039 301.7739 L-135.8213 238.0643" clip-path="url(#clipPath2)"/>
      <path d="M-142.6835 233.9522 L-134.9602 244.4093 L-134.9635 238.5783 L-129.8201 235.8315 Z" clip-path="url(#clipPath2)" stroke="none"/>
      <path fill="none" d="M-189.1327 203.9319 L-298.5174 -64.5989 L-259.0958 -72.3025" clip-path="url(#clipPath2)"/>
      <path d="M-251.2443 -73.8368 L-263.9805 -76.4425 L-260.0772 -72.1107 L-262.0626 -66.6281 Z" clip-path="url(#clipPath2)" stroke="none"/>
      <text x="-259.5174" xml:space="preserve" y="61.5199" clip-path="url(#clipPath2)" font-family="sans-serif" stroke="none">remove money</text>
      <path fill="none" d="M-165.4976 203.9522 L-142.99 51.7129 L-122.4815 51.7129" clip-path="url(#clipPath2)"/>
      <path d="M-114.4815 51.7129 L-126.4815 46.7129 L-123.4815 51.7129 L-126.4815 56.7129 Z" clip-path="url(#clipPath2)" stroke="none"/>
      <text x="-167.0897" xml:space="preserve" y="111.5442" clip-path="url(#clipPath2)" font-family="sans-serif" stroke="none">add turret to list</text>
      <path fill="none" d="M-12.2725 301.7739 L-43.8504 241.0498" clip-path="url(#clipPath2)"/>
      <path d="M-47.5414 233.9521 L-46.441 246.9055 L-43.389 241.937 L-37.5689 242.2918 Z" clip-path="url(#clipPath2)" stroke="none"/>
      <path fill="none" d="M-78.5272 203.9522 L-370.5519 15.0249 L-186.9173 -69.5177" clip-path="url(#clipPath2)"/>
      <path d="M-179.6504 -72.8633 L-192.6417 -72.3867 L-187.8256 -69.0995 L-188.4597 -63.3032 Z" clip-path="url(#clipPath2)" stroke="none"/>
      <text x="-240.4967" xml:space="preserve" y="88.8354" clip-path="url(#clipPath2)" font-family="sans-serif" stroke="none">add money</text>
      <path fill="none" d="M-55.3417 203.9522 L-55.3417 118.4795 L-7.5708 79.751" clip-path="url(#clipPath2)"/>
      <path d="M-1.3564 74.7129 L-13.8267 78.386 L-8.3475 80.3807 L-7.5291 86.154 Z" clip-path="url(#clipPath2)" stroke="none"/>
      <text x="-90.1272" xml:space="preserve" y="133.7171" clip-path="url(#clipPath2)" font-family="sans-serif" stroke="none">remove turret from list</text>
      <path fill="none" d="M108.5508 74.7129 L208.6091 102.9374" clip-path="url(#clipPath2)"/>
      <path d="M216.3086 105.1093 L206.1167 97.0392 L207.6466 102.6659 L203.4019 106.6636 Z" clip-path="url(#clipPath2)" stroke="none"/>
      <path fill="none" d="M275.6696 101.4102 L275.97 100.4423 L276.3763 96.4116 L275.97 92.3809 L274.8047 88.6267 L272.9607 85.2294 L270.5185 82.2695 L267.5586 79.8273 L264.1613 77.9833 L260.4071 76.8179 L256.3764 76.4116 L252.3457 76.8179 L248.5915 77.9833 L245.1942 79.8273 L242.2342 82.2694 L239.7921 85.2294 L237.9481 88.6267 L236.7827 92.3809 L236.6779 93.4204 L236.6919 93.5194" clip-path="url(#clipPath2)"/>
      <path d="M237.0881 101.5096 L241.4877 89.2767 L236.6424 92.5207 L231.4999 89.7719 Z" clip-path="url(#clipPath2)" stroke="none"/>
    </g>
  </g>
</svg>
