<?xml version="1.0" encoding="UTF-8"?><svg xmlns="http://www.w3.org/2000/svg" xmlns:xlink="http://www.w3.org/1999/xlink" fill-opacity="1" color-rendering="auto" color-interpolation="auto" text-rendering="auto" stroke="black" stroke-linecap="square" width="1680" stroke-miterlimit="10" shape-rendering="auto" stroke-opacity="1" fill="black" stroke-dasharray="none" font-weight="normal" stroke-width="1" height="822" font-family="'Dialog'" font-style="normal" stroke-linejoin="miter" font-size="12px" stroke-dashoffset="0" image-rendering="auto">
  <!--Generated by ySVG 2.5-->
  <defs id="genericDefs"/>
  <g>
    <defs id="defs1">
      <clipPath clipPathUnits="userSpaceOnUse" id="clipPath1">
        <path d="M0 0 L1680 0 L1680 822 L0 822 L0 0 Z"/>
      </clipPath>
      <clipPath clipPathUnits="userSpaceOnUse" id="clipPath2">
        <path d="M-487 -415 L1193 -415 L1193 407 L-487 407 L-487 -415 Z"/>
      </clipPath>
    </defs>
    <g fill="rgb(255,204,0)" text-rendering="geometricPrecision" shape-rendering="geometricPrecision" transform="matrix(1,0,0,1,487,415)" stroke="rgb(255,204,0)">
      <path d="M271.8015 -292.7798 L495.0001 -292.7798 L470.1986 -240.7801 L247.0002 -240.7801 Z" fill-rule="evenodd" clip-path="url(#clipPath2)" stroke="none"/>
    </g>
    <g text-rendering="geometricPrecision" stroke-miterlimit="1.45" shape-rendering="geometricPrecision" transform="matrix(1,0,0,1,487,415)" stroke-linecap="butt">
      <path fill="none" d="M271.8015 -292.7798 L495.0001 -292.7798 L470.1986 -240.7801 L247.0002 -240.7801 Z" fill-rule="evenodd" clip-path="url(#clipPath2)"/>
      <text x="282.9688" xml:space="preserve" y="-262.2447" clip-path="url(#clipPath2)" font-family="sans-serif" stroke="none">Ask player if they want to play</text>
    </g>
    <g fill="rgb(255,204,0)" text-rendering="geometricPrecision" shape-rendering="geometricPrecision" transform="matrix(1,0,0,1,487,415)" stroke="rgb(255,204,0)">
      <rect x="379" width="116" height="46" y="-37.5" clip-path="url(#clipPath2)" stroke="none"/>
    </g>
    <g text-rendering="geometricPrecision" stroke-miterlimit="1.45" shape-rendering="geometricPrecision" transform="matrix(1,0,0,1,487,415)" stroke-linecap="butt">
      <rect fill="none" x="379" width="116" height="46" y="-37.5" clip-path="url(#clipPath2)"/>
      <text x="402.0254" xml:space="preserve" y="-9.9648" clip-path="url(#clipPath2)" font-family="sans-serif" stroke="none">Start canvas</text>
    </g>
    <g fill="rgb(255,204,0)" text-rendering="geometricPrecision" shape-rendering="geometricPrecision" transform="matrix(1,0,0,1,487,415)" stroke="rgb(255,204,0)">
      <rect x="644.5529" width="163" height="46" y="-184.5451" clip-path="url(#clipPath2)" stroke="none"/>
    </g>
    <g text-rendering="geometricPrecision" stroke-miterlimit="1.45" shape-rendering="geometricPrecision" transform="matrix(1,0,0,1,487,415)" stroke-linecap="butt">
      <rect fill="none" x="644.5529" width="163" height="46" y="-184.5451" clip-path="url(#clipPath2)"/>
      <text x="665.3293" xml:space="preserve" y="-157.0099" clip-path="url(#clipPath2)" font-family="sans-serif" stroke="none">Start enemy spawner</text>
    </g>
    <g fill="rgb(255,204,0)" text-rendering="geometricPrecision" shape-rendering="geometricPrecision" transform="matrix(1,0,0,1,487,415)" stroke="rgb(255,204,0)">
      <rect x="82" width="248" height="46" y="-197.8159" clip-path="url(#clipPath2)" stroke="none"/>
    </g>
    <g text-rendering="geometricPrecision" stroke-miterlimit="1.45" shape-rendering="geometricPrecision" transform="matrix(1,0,0,1,487,415)" stroke-linecap="butt">
      <rect fill="none" x="82" width="248" height="46" y="-197.8159" clip-path="url(#clipPath2)"/>
      <text x="89.334" xml:space="preserve" y="-170.2807" clip-path="url(#clipPath2)" font-family="sans-serif" stroke="none">Start player manager and turretManager</text>
    </g>
    <g fill="rgb(255,204,0)" text-rendering="geometricPrecision" shape-rendering="geometricPrecision" transform="matrix(1,0,0,1,487,415)" stroke="rgb(255,204,0)">
      <rect x="-251.2443" width="256.1366" height="52" y="-147.2288" clip-path="url(#clipPath2)" stroke="none"/>
    </g>
    <g text-rendering="geometricPrecision" stroke-miterlimit="1.45" shape-rendering="geometricPrecision" transform="matrix(1,0,0,1,487,415)" stroke-linecap="butt">
      <rect fill="none" x="-251.2443" width="256.1366" height="52" y="-147.2288" clip-path="url(#clipPath2)"/>
      <text x="-239.8362" xml:space="preserve" y="-116.6936" clip-path="url(#clipPath2)" font-family="sans-serif" stroke="none">Player manager sets up money and lives</text>
    </g>
    <g fill="rgb(255,204,0)" text-rendering="geometricPrecision" shape-rendering="geometricPrecision" transform="matrix(1,0,0,1,487,415)" stroke="rgb(255,204,0)">
      <rect x="-235.2376" width="282.9903" height="46" y="-6.5814" clip-path="url(#clipPath2)" stroke="none"/>
    </g>
    <g text-rendering="geometricPrecision" stroke-miterlimit="1.45" shape-rendering="geometricPrecision" transform="matrix(1,0,0,1,487,415)" stroke-linecap="butt">
      <rect fill="none" x="-235.2376" width="282.9903" height="46" y="-6.5814" clip-path="url(#clipPath2)"/>
      <text x="-222.1477" xml:space="preserve" y="20.9537" clip-path="url(#clipPath2)" font-family="sans-serif" stroke="none">turret manager starts itself with the squares</text>
    </g>
    <g fill="rgb(255,204,0)" text-rendering="geometricPrecision" shape-rendering="geometricPrecision" transform="matrix(1,0,0,1,487,415)" stroke="rgb(255,204,0)">
      <path d="M326.5924 227.9928 L599.1118 227.9928 L568.8321 305.6433 L296.3124 305.6433 Z" fill-rule="evenodd" clip-path="url(#clipPath2)" stroke="none"/>
    </g>
    <g text-rendering="geometricPrecision" stroke-miterlimit="1.45" shape-rendering="geometricPrecision" transform="matrix(1,0,0,1,487,415)" stroke-linecap="butt">
      <path fill="none" d="M326.5924 227.9928 L599.1118 227.9928 L568.8321 305.6433 L296.3124 305.6433 Z" fill-rule="evenodd" clip-path="url(#clipPath2)"/>
      <text x="391.3771" xml:space="preserve" y="271.3529" clip-path="url(#clipPath2)" font-family="sans-serif" stroke="none">main game window</text>
    </g>
    <g fill="rgb(255,204,0)" text-rendering="geometricPrecision" shape-rendering="geometricPrecision" transform="matrix(1,0,0,1,487,415)" stroke="rgb(255,204,0)">
      <rect x="906.5408" width="116" height="34.3005" y="-134.2327" clip-path="url(#clipPath2)" stroke="none"/>
    </g>
    <g text-rendering="geometricPrecision" stroke-miterlimit="1.45" shape-rendering="geometricPrecision" transform="matrix(1,0,0,1,487,415)" stroke-linecap="butt">
      <rect fill="none" x="906.5408" width="116" height="34.3005" y="-134.2327" clip-path="url(#clipPath2)"/>
      <text x="913.9275" xml:space="preserve" y="-112.5472" clip-path="url(#clipPath2)" font-family="sans-serif" stroke="none">Wait for start gap</text>
    </g>
    <g fill="rgb(255,204,0)" text-rendering="geometricPrecision" shape-rendering="geometricPrecision" transform="matrix(1,0,0,1,487,415)" stroke="rgb(255,204,0)">
      <rect x="937.7659" width="116" height="70.1379" y="153.1744" clip-path="url(#clipPath2)" stroke="none"/>
    </g>
    <g text-rendering="geometricPrecision" stroke-miterlimit="1.45" shape-rendering="geometricPrecision" transform="matrix(1,0,0,1,487,415)" stroke-linecap="butt">
      <rect fill="none" x="937.7659" width="116" height="70.1379" y="153.1744" clip-path="url(#clipPath2)"/>
      <text x="944.5931" xml:space="preserve" y="192.7785" clip-path="url(#clipPath2)" font-family="sans-serif" stroke="none">wait for wave gap</text>
    </g>
    <g fill="rgb(255,204,0)" text-rendering="geometricPrecision" shape-rendering="geometricPrecision" transform="matrix(1,0,0,1,487,415)" stroke="rgb(255,204,0)">
      <rect x="1028.3468" width="148.7606" height="22.8024" y="271.2419" clip-path="url(#clipPath2)" stroke="none"/>
    </g>
    <g text-rendering="geometricPrecision" stroke-miterlimit="1.45" shape-rendering="geometricPrecision" transform="matrix(1,0,0,1,487,415)" stroke-linecap="butt">
      <rect fill="none" x="1028.3468" width="148.7606" height="22.8024" y="271.2419" clip-path="url(#clipPath2)"/>
      <text x="1046.7936" xml:space="preserve" y="287.1782" clip-path="url(#clipPath2)" font-family="sans-serif" stroke="none">wait for enemy gap</text>
    </g>
    <g fill="rgb(255,204,0)" text-rendering="geometricPrecision" shape-rendering="geometricPrecision" transform="matrix(1,0,0,1,487,415)" stroke="rgb(255,204,0)">
      <rect x="833.1622" width="104.6038" height="46" y="259.643" clip-path="url(#clipPath2)" stroke="none"/>
    </g>
    <g text-rendering="geometricPrecision" stroke-miterlimit="1.45" shape-rendering="geometricPrecision" transform="matrix(1,0,0,1,487,415)" stroke-linecap="butt">
      <rect fill="none" x="833.1622" width="104.6038" height="46" y="259.643" clip-path="url(#clipPath2)"/>
      <text x="845.925" xml:space="preserve" y="287.1782" clip-path="url(#clipPath2)" font-family="sans-serif" stroke="none">spawn enemy</text>
    </g>
    <g fill="rgb(255,204,0)" text-rendering="geometricPrecision" shape-rendering="geometricPrecision" transform="matrix(1,0,0,1,487,415)" stroke="rgb(255,204,0)">
      <rect x="846.1367" width="156.502" height="41.5343" y="349.8253" clip-path="url(#clipPath2)" stroke="none"/>
    </g>
    <g text-rendering="geometricPrecision" stroke-miterlimit="1.45" shape-rendering="geometricPrecision" transform="matrix(1,0,0,1,487,415)" stroke-linecap="butt">
      <rect fill="none" x="846.1367" width="156.502" height="41.5343" y="349.8253" clip-path="url(#clipPath2)"/>
      <text x="857.087" xml:space="preserve" y="375.1276" clip-path="url(#clipPath2)" font-family="sans-serif" stroke="none">more enemies in wave?</text>
    </g>
    <g fill="rgb(255,204,0)" text-rendering="geometricPrecision" shape-rendering="geometricPrecision" transform="matrix(1,0,0,1,487,415)" stroke="rgb(255,204,0)">
      <rect x="610.9996" width="104.6038" height="22.8024" y="194.1862" clip-path="url(#clipPath2)" stroke="none"/>
    </g>
    <g text-rendering="geometricPrecision" stroke-miterlimit="1.45" shape-rendering="geometricPrecision" transform="matrix(1,0,0,1,487,415)" stroke-linecap="butt">
      <rect fill="none" x="610.9996" width="104.6038" height="22.8024" y="194.1862" clip-path="url(#clipPath2)"/>
      <text x="626.3435" xml:space="preserve" y="210.1225" clip-path="url(#clipPath2)" font-family="sans-serif" stroke="none">more waves?</text>
    </g>
    <g fill="rgb(255,204,0)" text-rendering="geometricPrecision" shape-rendering="geometricPrecision" transform="matrix(1,0,0,1,487,415)" stroke="rgb(255,204,0)">
      <rect x="525" width="320.6354" height="52" y="-73.7808" clip-path="url(#clipPath2)" stroke="none"/>
    </g>
    <g text-rendering="geometricPrecision" stroke-miterlimit="1.45" shape-rendering="geometricPrecision" transform="matrix(1,0,0,1,487,415)" stroke-linecap="butt">
      <rect fill="none" x="525" width="320.6354" height="52" y="-73.7808" clip-path="url(#clipPath2)"/>
      <text x="530.9495" xml:space="preserve" y="-43.2456" clip-path="url(#clipPath2)" font-family="sans-serif" stroke="none">get enemies and check for player is dead - then stop</text>
    </g>
    <g fill="rgb(255,204,0)" text-rendering="geometricPrecision" shape-rendering="geometricPrecision" transform="matrix(1,0,0,1,487,415)" stroke="rgb(255,204,0)">
      <rect x="198.3764" width="116" height="46" y="-37.5" clip-path="url(#clipPath2)" stroke="none"/>
    </g>
    <g text-rendering="geometricPrecision" stroke-miterlimit="1.45" shape-rendering="geometricPrecision" transform="matrix(1,0,0,1,487,415)" stroke-linecap="butt">
      <rect fill="none" x="198.3764" width="116" height="46" y="-37.5" clip-path="url(#clipPath2)"/>
      <text x="222.4213" xml:space="preserve" y="-9.9648" clip-path="url(#clipPath2)" font-family="sans-serif" stroke="none">get squares</text>
    </g>
    <g fill="rgb(255,204,0)" text-rendering="geometricPrecision" shape-rendering="geometricPrecision" transform="matrix(1,0,0,1,487,415)" stroke="rgb(255,204,0)">
      <rect x="292.2504" width="306.8618" height="46" y="81.2867" clip-path="url(#clipPath2)" stroke="none"/>
    </g>
    <g text-rendering="geometricPrecision" stroke-miterlimit="1.45" shape-rendering="geometricPrecision" transform="matrix(1,0,0,1,487,415)" stroke-linecap="butt">
      <rect fill="none" x="292.2504" width="306.8618" height="46" y="81.2867" clip-path="url(#clipPath2)"/>
      <text x="292.4528" xml:space="preserve" y="108.8219" clip-path="url(#clipPath2)" font-family="sans-serif" stroke="none">canvas renders - check if player is dead - if yes stop</text>
    </g>
    <g fill="rgb(255,204,0)" text-rendering="geometricPrecision" shape-rendering="geometricPrecision" transform="matrix(1,0,0,1,487,415)" stroke="rgb(255,204,0)">
      <rect x="-97.0265" width="202.8107" height="60.2663" y="122.8159" clip-path="url(#clipPath2)" stroke="none"/>
    </g>
    <g text-rendering="geometricPrecision" stroke-miterlimit="1.45" shape-rendering="geometricPrecision" transform="matrix(1,0,0,1,487,415)" stroke-linecap="butt">
      <rect fill="none" x="-97.0265" width="202.8107" height="60.2663" y="122.8159" clip-path="url(#clipPath2)"/>
      <text x="-49.6856" xml:space="preserve" y="157.4842" clip-path="url(#clipPath2)" font-family="sans-serif" stroke="none">create turretFrame</text>
    </g>
    <g fill="rgb(255,204,0)" text-rendering="geometricPrecision" shape-rendering="geometricPrecision" transform="matrix(1,0,0,1,487,415)" stroke="rgb(255,204,0)">
      <rect x="-211.0266" width="171.5966" height="30" y="266.4795" clip-path="url(#clipPath2)" stroke="none"/>
    </g>
    <g text-rendering="geometricPrecision" stroke-miterlimit="1.45" shape-rendering="geometricPrecision" transform="matrix(1,0,0,1,487,415)" stroke-linecap="butt">
      <rect fill="none" x="-211.0266" width="171.5966" height="30" y="266.4795" clip-path="url(#clipPath2)"/>
      <text x="-190.5897" xml:space="preserve" y="286.0147" clip-path="url(#clipPath2)" font-family="sans-serif" stroke="none">check for button input</text>
    </g>
    <g fill="rgb(255,204,0)" text-rendering="geometricPrecision" shape-rendering="geometricPrecision" transform="matrix(1,0,0,1,487,415)" stroke="rgb(255,204,0)">
      <rect x="-335.5366" width="94.1304" height="30" y="168.6578" clip-path="url(#clipPath2)" stroke="none"/>
    </g>
    <g text-rendering="geometricPrecision" stroke-miterlimit="1.45" shape-rendering="geometricPrecision" transform="matrix(1,0,0,1,487,415)" stroke-linecap="butt">
      <rect fill="none" x="-335.5366" width="94.1304" height="30" y="168.6578" clip-path="url(#clipPath2)"/>
      <text x="-317.4695" xml:space="preserve" y="188.193" clip-path="url(#clipPath2)" font-family="sans-serif" stroke="none">buy turret</text>
    </g>
    <g fill="rgb(255,204,0)" text-rendering="geometricPrecision" shape-rendering="geometricPrecision" transform="matrix(1,0,0,1,487,415)" stroke="rgb(255,204,0)">
      <rect x="-211.4062" width="70.6167" height="30" y="168.6578" clip-path="url(#clipPath2)" stroke="none"/>
    </g>
    <g text-rendering="geometricPrecision" stroke-miterlimit="1.45" shape-rendering="geometricPrecision" transform="matrix(1,0,0,1,487,415)" stroke-linecap="butt">
      <rect fill="none" x="-211.4062" width="70.6167" height="30" y="168.6578" clip-path="url(#clipPath2)"/>
      <text x="-205.2218" xml:space="preserve" y="188.193" clip-path="url(#clipPath2)" font-family="sans-serif" stroke="none">sell turrey</text>
    </g>
    <g fill="rgb(255,204,0)" text-rendering="geometricPrecision" shape-rendering="geometricPrecision" transform="matrix(1,0,0,1,487,415)" stroke="rgb(255,204,0)">
      <rect x="95.5525" width="80.1355" height="30" y="66.1172" clip-path="url(#clipPath2)" stroke="none"/>
    </g>
    <g text-rendering="geometricPrecision" stroke-miterlimit="1.45" shape-rendering="geometricPrecision" transform="matrix(1,0,0,1,487,415)" stroke-linecap="butt">
      <rect fill="none" x="95.5525" width="80.1355" height="30" y="66.1172" clip-path="url(#clipPath2)"/>
      <text x="104.8702" xml:space="preserve" y="85.6524" clip-path="url(#clipPath2)" font-family="sans-serif" stroke="none">get turrets</text>
      <path fill="none" d="M377.8079 -240.7574 L428.9581 -45.2395" clip-path="url(#clipPath2)"/>
      <path d="M430.9829 -37.5 L432.7829 -50.3748 L428.705 -46.207 L423.1085 -47.8438 Z" clip-path="url(#clipPath2)" stroke="none"/>
      <path fill="none" d="M458.6797 -240.7923 L640.7827 -186.8185" clip-path="url(#clipPath2)"/>
      <path d="M648.4529 -184.5451 L638.3685 -192.749 L639.8239 -187.1027 L635.5267 -183.1613 Z" clip-path="url(#clipPath2)" stroke="none"/>
      <path fill="none" d="M324.3118 -240.7578 L254.2541 -201.7107" clip-path="url(#clipPath2)"/>
      <path d="M247.2662 -197.8159 L260.1823 -199.2906 L255.1275 -202.1975 L255.3138 -208.0255 Z" clip-path="url(#clipPath2)" stroke="none"/>
      <path fill="none" d="M82 -154.6297 L12.7884 -143.3627" clip-path="url(#clipPath2)"/>
      <path d="M4.8923 -142.0772 L17.5398 -139.0703 L13.7754 -143.5233 L15.933 -148.9404 Z" clip-path="url(#clipPath2)" stroke="none"/>
      <path fill="none" d="M696.3253 -184.5451 L419.0826 -399.045 L419.0826 -399.045 L-65.3077 -150.8766" clip-path="url(#clipPath2)"/>
      <path d="M-72.4276 -147.2288 L-59.4678 -148.2505 L-64.4177 -151.3325 L-64.0275 -157.1504 Z" clip-path="url(#clipPath2)" stroke="none"/>
      <text x="416.3322" xml:space="preserve" y="-310.9874" clip-path="url(#clipPath2)" font-family="sans-serif" stroke="none">check if enemy reaches end - remove lives from player</text>
      <path fill="none" d="M169.9496 -151.8159 L-50.9478 -10.8843" clip-path="url(#clipPath2)"/>
      <path d="M-57.6921 -6.5814 L-44.8864 -8.8205 L-50.1047 -11.4221 L-50.2649 -17.2509 Z" clip-path="url(#clipPath2)" stroke="none"/>
      <path fill="none" d="M807.5529 -146.3506 L898.6763 -129.3619" clip-path="url(#clipPath2)"/>
      <path d="M906.5408 -127.8957 L895.6604 -135.0103 L897.6932 -129.5452 L893.8276 -125.1797 Z" clip-path="url(#clipPath2)" stroke="none"/>
      <path fill="none" d="M966.2947 -99.9322 L991.3656 145.2159" clip-path="url(#clipPath2)"/>
      <path d="M992.1795 153.1744 L995.9327 140.728 L991.2639 144.2211 L985.9846 141.7454 Z" clip-path="url(#clipPath2)" stroke="none"/>
      <path fill="none" d="M1035.5015 223.3124 L1083.8107 265.9482" clip-path="url(#clipPath2)"/>
      <path d="M1089.8088 271.2418 L1084.1201 259.5526 L1083.0609 265.2865 L1077.5032 267.0502 Z" clip-path="url(#clipPath2)" stroke="none"/>
      <path fill="none" d="M1028.3468 282.643 L945.7659 282.643" clip-path="url(#clipPath2)"/>
      <path d="M937.7659 282.643 L949.7659 287.643 L946.7659 282.643 L949.7659 277.643 Z" clip-path="url(#clipPath2)" stroke="none"/>
      <path fill="none" d="M895.6431 305.643 L911.9592 342.5097" clip-path="url(#clipPath2)"/>
      <path d="M915.1968 349.8253 L914.9127 336.8284 L911.5545 341.5953 L905.7682 340.8754 Z" clip-path="url(#clipPath2)" stroke="none"/>
      <path fill="none" d="M966.4983 349.8253 L1072.4335 297.5826" clip-path="url(#clipPath2)"/>
      <path d="M1079.6084 294.0443 L1066.6345 294.8675 L1071.5366 298.0249 L1071.0575 303.8362 Z" clip-path="url(#clipPath2)" stroke="none"/>
      <text x="1046.49" xml:space="preserve" y="343.6589" clip-path="url(#clipPath2)" font-family="sans-serif" stroke="none">yes</text>
      <path fill="none" d="M891.5281 349.8253 L688.1042 221.2625" clip-path="url(#clipPath2)"/>
      <path d="M681.3416 216.9885 L688.8143 227.6261 L688.9495 221.7967 L694.1567 219.1728 Z" clip-path="url(#clipPath2)" stroke="none"/>
      <text x="811.0203" xml:space="preserve" y="273.1216" clip-path="url(#clipPath2)" font-family="sans-serif" stroke="none">No</text>
      <path fill="none" d="M715.6034 202.8589 L929.7768 191.6859" clip-path="url(#clipPath2)"/>
      <path d="M937.7659 191.2691 L925.5217 186.9011 L928.7781 191.738 L926.0427 196.8875 Z" clip-path="url(#clipPath2)" stroke="none"/>
      <text x="808.7567" xml:space="preserve" y="232.0462" clip-path="url(#clipPath2)" font-family="sans-serif" stroke="none">Yes</text>
      <path fill="none" d="M717.8174 -138.5451 L697.3243 -81.3125" clip-path="url(#clipPath2)"/>
      <path d="M694.6274 -73.7808 L703.3801 -83.3929 L697.6614 -82.254 L693.9654 -86.7639 Z" clip-path="url(#clipPath2)" stroke="none"/>
      <path fill="none" d="M664.5679 -21.7716 L663.6068 -19.5351 L661.8215 -13.9559 L660.579 -8.2416 L659.8867 -2.435 L659.7516 3.4214 L660.1808 9.2846 L661.1817 15.1121 L662.7614 20.861 L664.9269 26.4888 L667.6857 31.9525 L671.0446 37.2096 L674.9161 42.1017 L679.179 46.4938 L683.7905 50.379 L688.7081 53.7499 L693.889 56.5995 L699.2903 58.9205 L704.8695 60.7058 L710.5838 61.9483 L716.3904 62.6406 L722.2468 62.7758 L728.11 62.3465 L733.9375 61.3456 L739.6865 59.766 L745.3141 57.6004 L750.778 54.8417 L756.035 51.4827 L760.9271 47.6113 L765.3192 43.3484 L769.2043 38.7368 L772.5753 33.8192 L775.4249 28.6384 L777.7459 23.237 L779.5312 17.6578 L780.7737 11.9435 L781.4661 6.1369 L781.6012 0.2806 L781.1719 -5.5827 L780.171 -11.4101 L779.4028 -14.2058 L779.3669 -14.2991" clip-path="url(#clipPath2)"/>
      <path d="M776.7826 -21.8702 L775.9272 -8.8983 L779.69 -13.3527 L785.3911 -12.1288 Z" clip-path="url(#clipPath2)" stroke="none"/>
      <path fill="none" d="M359.1766 -240.7574 L270.1357 -44.7835" clip-path="url(#clipPath2)"/>
      <path d="M266.8264 -37.5 L276.3425 -46.3569 L270.5493 -45.6939 L267.2382 -50.4935 Z" clip-path="url(#clipPath2)" stroke="none"/>
      <path fill="none" d="M293.0304 8.5 L402.2508 77.0346" clip-path="url(#clipPath2)"/>
      <path d="M409.0272 81.2867 L401.5202 70.6733 L401.4038 76.5031 L396.205 79.1438 Z" clip-path="url(#clipPath2)" stroke="none"/>
      <path fill="none" d="M438.6809 8.5 L443.4173 73.308" clip-path="url(#clipPath2)"/>
      <path d="M444.0004 81.2867 L448.1124 68.9542 L443.3444 72.3107 L438.139 69.6831 Z" clip-path="url(#clipPath2)" stroke="none"/>
      <path fill="none" d="M644.3455 -21.7808 L488.6807 77.0003" clip-path="url(#clipPath2)"/>
      <path d="M481.9259 81.2867 L494.7371 79.0788 L489.525 76.4645 L489.3791 70.6354 Z" clip-path="url(#clipPath2)" stroke="none"/>
      <path fill="none" d="M445.9687 127.2867 L447.1273 220.0181" clip-path="url(#clipPath2)"/>
      <path d="M447.2273 228.0175 L452.077 215.956 L447.1149 219.0182 L442.0778 216.0809 Z" clip-path="url(#clipPath2)" stroke="none"/>
      <path fill="none" d="M-77.2129 39.4186 L-21.9459 116.3195" clip-path="url(#clipPath2)"/>
      <path d="M-17.2771 122.8159 L-20.2201 110.1534 L-22.5295 115.5075 L-28.3405 115.9894 Z" clip-path="url(#clipPath2)" stroke="none"/>
      <path fill="none" d="M105.7842 178.9947 L316.1233 233.0196" clip-path="url(#clipPath2)"/>
      <path d="M323.8718 235.0098 L313.4929 227.1817 L315.1547 232.7708 L311.0052 236.8673 Z" clip-path="url(#clipPath2)" stroke="none"/>
      <path fill="none" d="M-26.0067 183.0822 L-104.4223 260.8463" clip-path="url(#clipPath2)"/>
      <path d="M-110.1027 266.4795 L-98.0613 261.58 L-103.7122 260.1422 L-105.1028 254.4795 Z" clip-path="url(#clipPath2)" stroke="none"/>
      <path fill="none" d="M-150.2601 266.4795 L-256.5774 202.7699" clip-path="url(#clipPath2)"/>
      <path d="M-263.4397 198.6578 L-255.7164 209.1149 L-255.7196 203.284 L-250.5762 200.5371 Z" clip-path="url(#clipPath2)" stroke="none"/>
      <path fill="none" d="M-310.4376 168.6864 L-471.4774 44.2466 L-185.1281 -91.7958" clip-path="url(#clipPath2)"/>
      <path d="M-177.9022 -95.2288 L-190.8867 -94.5955 L-186.0314 -91.3667 L-186.5955 -85.5631 Z" clip-path="url(#clipPath2)" stroke="none"/>
      <text x="-415.5525" xml:space="preserve" y="87.2488" clip-path="url(#clipPath2)" font-family="sans-serif" stroke="none">remove money</text>
      <path fill="none" d="M-283.2533 168.6578 L-241.3982 48.3408 L-207.9479 41.1091" clip-path="url(#clipPath2)"/>
      <path d="M-200.1285 39.4186 L-212.9141 37.0672 L-208.9253 41.3204 L-210.801 46.8414 Z" clip-path="url(#clipPath2)" stroke="none"/>
      <text x="-272.0748" xml:space="preserve" y="99.6152" clip-path="url(#clipPath2)" font-family="sans-serif" stroke="none">add turret to list</text>
      <path fill="none" d="M-133.0287 266.4795 L-164.6065 205.7555" clip-path="url(#clipPath2)"/>
      <path d="M-168.2975 198.6578 L-167.1971 211.6111 L-164.1452 206.6427 L-158.325 206.9975 Z" clip-path="url(#clipPath2)" stroke="none"/>
      <path fill="none" d="M-194.4953 168.6578 L-445.1035 -35.6702 L-228.7367 -93.174" clip-path="url(#clipPath2)"/>
      <path d="M-221.0051 -95.2288 L-233.8867 -96.9788 L-229.7031 -92.9171 L-231.3182 -87.3143 Z" clip-path="url(#clipPath2)" stroke="none"/>
      <text x="-333.095" xml:space="preserve" y="47.7778" clip-path="url(#clipPath2)" font-family="sans-serif" stroke="none">add money</text>
      <path fill="none" d="M-183.5022 168.6578 L-201.6474 131.8988 L-120.6956 45.2639" clip-path="url(#clipPath2)"/>
      <path d="M-115.2337 39.4186 L-127.0798 44.7729 L-121.3783 45.9946 L-119.7732 51.6002 Z" clip-path="url(#clipPath2)" stroke="none"/>
      <text x="-236.9853" xml:space="preserve" y="127.934" clip-path="url(#clipPath2)" font-family="sans-serif" stroke="none">remove turret from list</text>
      <path fill="none" d="M-12.2054 39.4186 L87.8529 67.643" clip-path="url(#clipPath2)"/>
      <path d="M95.5525 69.8149 L85.3606 61.7449 L86.8905 67.3715 L82.6457 71.3693 Z" clip-path="url(#clipPath2)" stroke="none"/>
      <path fill="none" d="M154.9134 66.1158 L155.2139 65.1479 L155.6202 61.1172 L155.2139 57.0865 L154.0485 53.3323 L152.2045 49.935 L149.7624 46.9751 L146.8024 44.5329 L143.4051 42.6889 L139.6509 41.5236 L135.6202 41.1172 L131.5895 41.5236 L127.8353 42.6889 L124.438 44.5329 L121.4781 46.9751 L119.0359 49.935 L117.1919 53.3323 L116.0265 57.0865 L115.9217 58.1261 L115.9357 58.2251" clip-path="url(#clipPath2)"/>
      <path d="M116.3319 66.2153 L120.7315 53.9824 L115.8862 57.2263 L110.7438 54.4776 Z" clip-path="url(#clipPath2)" stroke="none"/>
      <path fill="none" d="M175.688 84.1113 L284.2726 92.2254" clip-path="url(#clipPath2)"/>
      <path d="M292.2504 92.8215 L280.6563 86.9412 L283.2754 92.1509 L279.9111 96.9134 Z" clip-path="url(#clipPath2)" stroke="none"/>
    </g>
  </g>
</svg>
